<?xml version="1.0" encoding="utf-8"?>
<!DOCTYPE svg PUBLIC "-//W3C//DTD SVG 1.1//EN" "http://www.w3.org/Graphics/SVG/1.1/DTD/svg11.dtd">
<svg version="1.1" xmlns="http://www.w3.org/2000/svg" xmlns:xlink="http://www.w3.org/1999/xlink" x="0px" y="0px" width="100px" height="100px" viewBox="0 0 100 100" >


  <path fill="#777777" d="Mz"/>
  <path d="M0 10
           A 10 10, 0, 0, 1, 10 0
           L 90 0
           A 10 10, 0, 0, 1, 100 10
           L 100 90
           A 10 10, 0, 0, 1, 90 100
           L 60 100
           A 10 10, 0, 0, 1, 50 90
           L 50 60
           A 10 10, 0, 0, 0, 40 50
           L 10 50
           A 10 10, 0, 0, 1, 0 40
           L 0 10 Z" fill="gray"/>
</svg>
